HIERARCHY
ROOT Hips
{
	OFFSET 0.00000 0.00000 0.00000
	CHANNELS 6 Xposition Yposition Zposition Zrotation Yrotation Xrotation 
	JOINT LHipJoint
	{
		OFFSET 0 0 0
		CHANNELS 3 Zrotation Yrotation Xrotation
		JOINT LeftHip
		{
			OFFSET 1.53139 -1.83434 0.76626
			CHANNELS 3 Zrotation Yrotation Xrotation
			JOINT LeftKnee
			{
				OFFSET 2.56112 -7.03663 0.00000
				CHANNELS 3 Zrotation Yrotation Xrotation
				JOINT LeftAnkle
				{
					OFFSET 2.59983 -7.14299 0.00000
					CHANNELS 3 Zrotation Yrotation Xrotation
					JOINT LeftToe
					{
						OFFSET 0.13742 -0.37757 2.00054
						CHANNELS 3 Zrotation Yrotation Xrotation
						End Site
						{
							OFFSET 0.00000 -0.00000 1.02897
						}
					}
				}
			}
		}
	}
	JOINT RHipJoint
	{
		OFFSET 0 0 0
		CHANNELS 3 Zrotation Yrotation Xrotation
		JOINT RightHip
		{
			OFFSET -1.40122 -1.83435 0.76627
			CHANNELS 3 Zrotation Yrotation Xrotation
			JOINT RightKnee
			{
				OFFSET -2.54052 -6.98003 0.00000
				CHANNELS 3 Zrotation Yrotation Xrotation
				JOINT RightAnkle
				{
					OFFSET -2.63179 -7.23079 0.00000
					CHANNELS 3 Zrotation Yrotation Xrotation
					JOINT RightToe
					{
						OFFSET -0.24131 -0.66299 2.03908
						CHANNELS 3 Zrotation Yrotation Xrotation
						End Site
						{
							OFFSET -0.00000 -0.00000 1.07391
						}
					}
				}
			}
		}
	}
	JOINT lowerback
	{
		OFFSET 0 0 0
		CHANNELS 3 Zrotation Yrotation Xrotation
		JOINT Chest
		{
			OFFSET 0.01174 2.10302 -0.29778
			CHANNELS 3 Zrotation Yrotation Xrotation
			JOINT Chest2
			{
				OFFSET 0.00772 2.13227 -0.01247
				CHANNELS 3 Zrotation Yrotation Xrotation
				JOINT lowerneck
				{
					OFFSET 0 0 0
					CHANNELS 3 Zrotation Yrotation Xrotation
					JOINT Neck
					{
						OFFSET -0.09219 1.60848 0.31481
						CHANNELS 3 Zrotation Yrotation Xrotation
						JOINT Head
						{
							OFFSET 0.13974 1.65456 -0.31134
							CHANNELS 3 Zrotation Yrotation Xrotation
							End Site
							{
								OFFSET 0.04742 1.69515 -0.14578
							}
						}
					}
				}
				JOINT LeftCollar
				{
					OFFSET 0 0 0
					CHANNELS 3 Zrotation Yrotation Xrotation
					JOINT LeftShoulder
					{
						OFFSET 3.24909 1.02882 -0.23993
CHANNELS 3 Zrotation Xrotation Yrotation
						JOINT LeftElbow
						{
OFFSET 0 -5.329550 -0.000000
CHANNELS 3 Zrotation Xrotation Yrotation
							JOINT LeftWrist
							{
OFFSET 0 -3.692320 -0.000000
CHANNELS 3 Zrotation Xrotation Yrotation
								JOINT lhand
								{
									OFFSET 0 0 0
CHANNELS 3 Zrotation Xrotation Yrotation
									JOINT LFingers
									{
OFFSET 0 -0.536600 -0.000000
CHANNELS 3 Zrotation Xrotation Yrotation
										End Site
										{
OFFSET 0 -0.432620 -0.000000
										}
									}
								}
								JOINT LThumb
								{
OFFSET 0 0.000000 0.000000
CHANNELS 3 Zrotation Xrotation Yrotation
									End Site
									{
OFFSET 0 -0.439220 0.439220
									}
								}
							}
						}
					}
				}
				JOINT RightCollar
				{
					OFFSET 0 0 0
					CHANNELS 3 Zrotation Yrotation Xrotation
					JOINT RightShoulder
					{
						OFFSET -3.21387 0.93002 -0.34594
CHANNELS 3 Zrotation Xrotation Yrotation
						JOINT RightElbow
						{
OFFSET 0 -5.234310 0.000000
CHANNELS 3 Zrotation Xrotation Yrotation
							JOINT RightWrist
							{
OFFSET 0 -3.553010 -0.000000
CHANNELS 3 Zrotation Xrotation Yrotation
								JOINT rhand
								{
									OFFSET 0 0 0
CHANNELS 3 Zrotation Xrotation Yrotation
									JOINT RFingers
									{
OFFSET 0 -0.772520 -0.000000
CHANNELS 3 Zrotation Xrotation Yrotation
										End Site
										{
OFFSET 0 -0.622830 -0.000000
										}
									}
								}
								JOINT RThumb
								{
OFFSET 0 0.000000 0.000000
CHANNELS 3 Zrotation Xrotation Yrotation
									End Site
									{
OFFSET 0 -0.632340 0.632340
									}
								}
							}
						}
					}
				}
			}
		}
	}
}
MOTION
Frames: 11
Frame Time: 0.008333333333333333
5.475812 17.858650 6.727483 358.988641 39.765795 355.250476 0.000000 0.000000 0.000000 -18.933541 -8.268288 -7.007835 3.445222 11.382423 33.581503 -0.814591 -23.174324 -9.755206 0.382558 -3.970162 -10.992907 0.000000 0.000000 0.000000 17.890243 4.849927 -9.801791 -2.880608 -10.498842 30.608107 -0.403344 7.964343 -11.815953 -0.009590 -0.632602 1.738379 -0.791279 1.258541 12.102327 0.268019 1.601688 1.212814 0.459471 0.817112 -5.543015 -14.187383 -10.207959 -9.426130 12.628545 -15.661207 32.843256 5.105987 -6.912032 15.329230 0.000000 0.000000 0.000000 2.459911 2.409341 -17.910844 17.903385 -28.033229 4.503751 20.711828 14.921741 -20.918111 0.000000 0.000000 0.000000 -7.125000 0.000000 0.000000 -8.079622 52.029308 1.405002 0.000000 0.000000 0.000000 -4.686290 2.215113 14.040271 -21.243246 -32.111149 -6.178743 -22.670219 -3.073031 -6.611011 0.000000 0.000000 0.000000 7.125000 0.000000 0.000000 3.003135 22.822955 1.604269
5.460383 17.840514 6.767695 359.078988 39.207175 355.236209 0.000000 0.000000 0.000000 -19.706605 -8.470322 -6.791411 3.317113 11.191013 32.927464 -0.787040 -23.245770 -10.087449 0.361220 -3.861092 -10.686157 0.000000 0.000000 0.000000 17.942187 4.839477 -9.983461 -2.974379 -10.653247 31.119333 -0.404283 8.482559 -11.963055 -0.004738 -0.389526 1.070302 -0.990025 1.244487 11.952641 0.423101 1.567705 1.321968 0.744107 0.805983 -5.354132 -14.244299 -10.163462 -9.470667 12.506694 -15.542218 32.867910 5.084667 -6.882164 15.319302 0.000000 0.000000 0.000000 2.134217 2.273763 -18.272704 17.913919 -28.046809 4.508726 20.718001 14.891503 -21.236434 0.000000 0.000000 0.000000 -7.125000 0.000000 0.000000 -8.182502 52.358618 1.490817 0.000000 0.000000 0.000000 -5.081266 2.027882 13.979724 -21.255230 -32.125033 -6.185112 -21.848737 -3.029916 -6.192367 0.000000 0.000000 0.000000 7.125000 0.000000 0.000000 3.606057 23.314115 1.885996
5.443948 17.823454 6.807704 358.988232 38.611989 355.127548 0.000000 0.000000 0.000000 -20.262477 -8.606407 -6.691587 3.208077 11.024122 32.361684 -0.747967 -23.233338 -10.431906 0.321180 -3.636869 -10.057861 0.000000 0.000000 0.000000 18.158423 4.607234 -10.196731 -3.051157 -10.777211 31.532363 -0.407382 9.076187 -12.171950 -0.004782 0.237348 -0.652180 -0.999827 1.227754 11.863303 0.549767 1.552124 1.352422 0.886980 0.799493 -5.275952 -14.177431 -10.119108 -9.422227 12.337404 -15.447629 32.912189 5.021885 -6.856479 15.282489 0.000000 0.000000 0.000000 1.895861 2.113662 -18.229194 17.740562 -27.823424 4.427626 20.671024 15.580232 -21.914928 0.000000 0.000000 0.000000 -7.125000 0.000000 0.000000 -8.471551 53.049605 1.688013 0.000000 0.000000 0.000000 -5.356976 1.945883 13.917199 -21.218076 -32.081969 -6.165372 -21.223099 -2.935023 -5.968078 0.000000 0.000000 0.000000 7.125000 0.000000 0.000000 4.067811 23.584012 2.105649
5.426022 17.810335 6.845538 358.841895 38.059684 354.998596 0.000000 0.000000 0.000000 -20.714315 -8.746851 -6.633396 3.119052 10.885091 31.893598 -0.690867 -23.117460 -10.823592 0.299713 -3.519513 -9.728688 0.000000 0.000000 0.000000 18.392912 4.356563 -10.418817 -3.115042 -10.878863 31.872630 -0.393545 9.798121 -12.246371 -0.006272 0.509608 -1.400243 -0.945364 1.202128 11.854278 0.661896 1.531117 1.315858 0.976902 0.789184 -5.310567 -14.140376 -10.101299 -9.301306 12.194396 -15.409908 33.008125 4.969885 -6.857830 15.272010 0.000000 0.000000 0.000000 1.798579 2.221688 -18.956425 17.799047 -27.898729 4.455005 21.595690 15.954908 -23.296056 0.000000 0.000000 0.000000 -7.125000 0.000000 0.000000 -8.042052 54.652406 1.906471 0.000000 0.000000 0.000000 -5.586031 1.919203 13.766386 -21.155925 -32.009867 -6.132428 -21.276871 -2.780245 -6.043809 0.000000 0.000000 0.000000 7.125000 0.000000 0.000000 4.027892 23.500618 2.092433
5.407081 17.802824 6.880886 358.790775 37.597170 354.915239 0.000000 0.000000 0.000000 -21.211831 -8.887633 -6.562179 3.045244 10.767830 31.500920 -0.620084 -22.855708 -11.188401 0.304482 -3.547564 -9.807200 0.000000 0.000000 0.000000 18.494827 4.245101 -10.612351 -3.174720 -10.972555 32.187589 -0.349860 10.623814 -12.055095 -0.004220 -0.054894 0.150854 -1.027904 1.187253 11.843092 0.784848 1.507436 1.302106 1.156138 0.780575 -5.323818 -14.253865 -10.146297 -9.134782 12.208614 -15.493586 33.092892 4.989170 -6.913351 15.305516 0.000000 0.000000 0.000000 1.697800 2.413547 -20.191757 18.024706 -28.188647 4.560978 22.634990 15.423675 -23.785504 0.000000 0.000000 0.000000 -7.125000 0.000000 0.000000 -7.149597 55.363134 1.826494 0.000000 0.000000 0.000000 -5.870749 1.780602 13.490241 -21.040072 -31.874997 -6.071155 -21.559150 -2.593900 -6.119915 0.000000 0.000000 0.000000 7.125000 0.000000 0.000000 3.819007 23.406504 1.991865
5.386471 17.792146 6.914690 358.681586 37.162114 354.825038 0.000000 0.000000 0.000000 -21.593501 -9.015381 -6.510146 2.981602 10.665097 31.158621 -0.605418 -22.569729 -11.033709 0.250087 -3.207785 -8.858639 0.000000 0.000000 0.000000 18.642475 4.075808 -10.844156 -3.233906 -11.064303 32.497109 -0.306333 11.457692 -11.914784 -0.001495 -0.207647 0.570611 -1.145958 1.160137 11.768104 0.942874 1.465690 1.323142 1.396555 0.763805 -5.265957 -14.386120 -10.213967 -9.018631 12.292062 -15.626961 33.165173 5.029164 -6.982693 15.365381 0.000000 0.000000 0.000000 1.505967 2.442167 -20.680564 18.109742 -28.297451 4.601106 22.258580 14.941089 -23.003545 0.000000 0.000000 0.000000 -7.125000 0.000000 0.000000 -7.243994 54.478543 1.688600 0.000000 0.000000 0.000000 -6.155781 1.594331 13.284646 -20.896090 -31.706749 -5.995299 -21.749020 -2.611047 -6.222084 0.000000 0.000000 0.000000 7.125000 0.000000 0.000000 3.678951 23.288128 1.928450
5.366904 17.778453 6.949962 358.539805 36.702687 354.729339 0.000000 0.000000 0.000000 -21.888676 -9.098101 -6.469801 2.931072 10.582515 30.884667 -0.654274 -22.336956 -10.349400 0.135233 -2.315411 -6.380660 0.000000 0.000000 0.000000 18.833819 3.763386 -11.072962 -3.286844 -11.145445 32.772054 -0.273053 12.235417 -11.907865 -0.003614 0.276712 -0.760271 -1.295028 1.134368 11.607026 1.126955 1.424329 1.378374 1.683307 0.747248 -5.125379 -14.471163 -10.269572 -8.985379 12.357615 -15.736323 33.221956 5.053826 -7.034857 15.425123 0.000000 0.000000 0.000000 1.323291 2.447270 -20.934952 18.186202 -28.394859 4.637477 21.422055 14.880558 -22.633733 0.000000 0.000000 0.000000 -7.125000 0.000000 0.000000 -7.968852 53.931614 1.757898 0.000000 0.000000 0.000000 -6.381307 1.532486 13.069150 -20.902762 -31.714638 -5.998756 -21.821091 -2.580981 -6.297240 0.000000 0.000000 0.000000 7.125000 0.000000 0.000000 3.625847 23.204108 1.907630
5.346700 17.769085 6.986455 358.391013 36.255473 354.561062 0.000000 0.000000 0.000000 -22.124732 -9.113041 -6.385418 2.902031 10.534714 30.726421 -0.734958 -22.074362 -9.292489 0.029134 -0.716611 -1.972015 0.000000 0.000000 0.000000 19.023416 3.505917 -11.186620 -3.325691 -11.204516 32.972696 -0.217992 13.018949 -11.707662 -0.002067 0.042842 -0.117757 -1.484435 1.098718 11.530306 1.323755 1.364916 1.433540 2.007583 0.722810 -5.031739 -14.473828 -10.306209 -9.013590 12.323470 -15.796169 33.300923 5.028973 -7.064131 15.478447 0.000000 0.000000 0.000000 1.160663 2.537931 -21.449784 18.332814 -28.581040 4.707412 21.406374 14.851221 -23.000671 0.000000 0.000000 0.000000 -7.125000 0.000000 0.000000 -8.124105 54.307239 1.867066 0.000000 0.000000 0.000000 -6.550410 1.588725 12.805031 -21.017220 -31.848358 -6.059014 -21.861864 -2.285715 -6.216583 0.000000 0.000000 0.000000 7.125000 0.000000 0.000000 3.595514 23.288744 1.884641
5.323049 17.766757 7.021908 358.092501 35.867498 354.286282 0.000000 0.000000 0.000000 -22.149135 -9.205795 -6.265306 2.897881 10.527878 30.703775 -0.755555 -21.174401 -8.051709 0.073810 1.433229 3.946202 0.000000 0.000000 0.000000 19.354155 3.262204 -11.244096 -3.346236 -11.235540 33.078408 -0.152220 13.777977 -11.418849 -0.012077 -0.638922 1.756041 -1.504437 1.018548 11.583809 1.483545 1.264443 1.432717 2.201800 0.675605 -5.061791 -14.473525 -10.340863 -9.043170 12.364484 -15.888696 33.429029 5.032764 -7.098016 15.572386 0.000000 0.000000 0.000000 1.109190 2.632899 -21.960443 18.395248 -28.660356 4.737260 21.668001 14.701797 -23.220630 0.000000 0.000000 0.000000 -7.125000 0.000000 0.000000 -7.938238 54.585262 1.878135 0.000000 0.000000 0.000000 -6.587463 1.701239 12.557919 -21.071369 -31.911535 -6.087598 -21.804672 -1.998072 -6.219625 0.000000 0.000000 0.000000 7.125000 0.000000 0.000000 3.637723 23.288147 1.906908
5.296398 17.766848 7.055165 357.666588 35.564509 353.975204 0.000000 0.000000 0.000000 -22.002254 -9.445398 -6.107799 2.917985 10.561130 30.813655 -0.576843 -19.057042 -7.664910 0.211476 2.916801 8.050002 0.000000 0.000000 0.000000 19.812599 2.916678 -11.304212 -3.349219 -11.240029 33.093602 -0.094496 14.466323 -11.214093 -0.014634 -0.780496 2.145064 -1.336862 0.888763 11.672761 1.547920 1.116434 1.388472 2.197187 0.600973 -5.148465 -14.329178 -10.363523 -9.058202 12.502491 -16.034636 33.557548 5.045829 -7.126514 15.669620 0.000000 0.000000 0.000000 1.273515 2.664364 -22.365100 18.386839 -28.649624 4.733228 21.652753 14.609625 -23.395871 0.000000 0.000000 0.000000 -7.125000 0.000000 0.000000 -8.022226 54.762881 1.933305 0.000000 0.000000 0.000000 -6.338445 1.869985 12.200812 -21.118553 -31.966468 -6.112594 -21.721296 -1.568121 -6.209560 0.000000 0.000000 0.000000 7.125000 0.000000 0.000000 3.699289 23.302889 1.938047
5.267885 17.765450 7.084023 357.245062 35.309608 353.665356 0.000000 0.000000 0.000000 -21.829181 -9.670022 -5.894288 2.955241 10.622144 31.016000 -0.249613 -16.162650 -8.644312 0.173911 2.668376 7.357792 0.000000 0.000000 0.000000 20.246429 2.571364 -11.333399 -3.342239 -11.229482 33.057831 -0.027018 15.053541 -10.870152 -0.020156 -0.912162 2.507196 -1.214793 0.749051 11.758971 1.626280 0.950741 1.389420 2.236469 0.518102 -5.186538 -14.126606 -10.353252 -9.103972 12.707452 -16.151828 33.582668 5.078646 -7.128046 15.719016 0.000000 0.000000 0.000000 1.429093 2.697131 -22.882303 18.493513 -28.784386 4.784558 21.614463 14.466903 -23.992702 0.000000 0.000000 0.000000 -7.125000 0.000000 0.000000 -8.301829 55.369740 2.124925 0.000000 0.000000 0.000000 -6.095913 1.962719 11.792372 -21.201078 -32.062288 -6.156387 -21.581279 -1.134420 -6.137573 0.000000 0.000000 0.000000 7.125000 0.000000 0.000000 3.802711 23.386598 1.985036
